<svg xmlns="http://www.w3.org/2000/svg" viewBox="0 0 64 64" id="digital-library">
  <polygon fill="#e3fcfd" points="62 62 2 62 7 49 57 49 62 62"></polygon>
  <rect width="50" height="32" x="7" y="17" fill="#42eaf5"></rect>
  <path fill="#e3fcfd" d="M44 12H22a7.38807 7.38807 0 0 1-2-5 7.388 7.388 0 0 1 2-5H44a13 13 0 0 0 0 10zM49 22H27a7.25 7.25 0 0 1 0-10H49a13 13 0 0 0 0 10z"></path>
  <polygon fill="#e3fcfd" points="40 31 36 29 32 31 32 22 40 22 40 31"></polygon>
  <path fill="#007da1" d="M63.86094,61.28163,59,48.64138V17.99965a2.0001,2.0001,0,0,0-2-2H54a2,2,0,0,0,0,4h1v27H9v-27H23.517a9.61478,9.61478,0,0,0,2.03473,3.3805A1.99928,1.99928,0,0,0,27,24.00075h3V31a2.01411,2.01411,0,0,0,2.89453,1.78906L36,31.23586l3.10547,1.55322A2.01427,2.01427,0,0,0,42,31V24.00075h7a2.01388,2.01388,0,0,0,1.84619-2.76953,11.00819,11.00819,0,0,1,0-8.46094A2.01384,2.01384,0,0,0,49,10.00075H45.425a10.94346,10.94346,0,0,1,.4212-7.23047A2.01384,2.01384,0,0,0,44,.00075H22a1.99925,1.99925,0,0,0-1.44824.62061A9.37378,9.37378,0,0,0,18,7.00075a9.37344,9.37344,0,0,0,2.55176,6.3794A1.99928,1.99928,0,0,0,22,14.00075h1.51984a9.8,9.8,0,0,0-.44946,1.9989H7a2.0001,2.0001,0,0,0-2,2V48.64138L.139,61.28163a2.0137,2.0137,0,0,0,1.86633,2.71766H61.99461A2.01366,2.01366,0,0,0,63.86094,61.28163ZM38,27.76418a3.24124,3.24124,0,0,0-4,0V24.00075h4Zm8.30127-13.76343a15.09821,15.09821,0,0,0,0,6H27.95115a5.16038,5.16038,0,0,1-.00732-6Zm-23.3501-4a5.16038,5.16038,0,0,1-.00732-6H41.30125a15.09821,15.09821,0,0,0,0,6ZM39,59.99947a2.0001,2.0001,0,0,0-2-1.99982H27a2.0001,2.0001,0,0,0-2,1.99982H4.917l3.46076-8.99963H55.62224L59.083,59.99947Z"></path>
  <circle cx="32" cy="43" r="2" fill="#e3fcfd"></circle>
</svg>
